HIERARCHY
ROOT SpineBase
{
  OFFSET 0.000000 0.000000 0.000000
  CHANNELS 6 Xposition Yposition Zposition Zrotation Xrotation Yrotation
  JOINT SpineMid
  {
    OFFSET 0.000000 31.663296 0.000000
    CHANNELS 3 Zrotation Xrotation Yrotation
    JOINT SpineShoulder
    {
      OFFSET 0.221214 23.253696 -0.672937
      CHANNELS 3 Zrotation Xrotation Yrotation
      JOINT Neck
      {
        OFFSET 0.178030 7.734337 -0.526714
        CHANNELS 3 Zrotation Xrotation Yrotation
        JOINT Head
        {
          OFFSET 2.957953 13.154986 3.111033
          CHANNELS 3 Zrotation Xrotation Yrotation
          End Site
          {
            OFFSET 0 0 0
          }
        }
      }
      JOINT ShoulderLeft
      {
        OFFSET -5.701966 -1.760458 -15.857608
        CHANNELS 3 Zrotation Xrotation Yrotation
        JOINT ElbowLeft
        {
          OFFSET -5.553682 -19.322138 -9.476279
          CHANNELS 3 Zrotation Xrotation Yrotation
          JOINT WristLeft
          {
            OFFSET 18.400962 -15.143411 3.072151
            CHANNELS 3 Zrotation Xrotation Yrotation
            JOINT HandLeft
            {
              OFFSET 6.681719 -4.208645 3.551526
              CHANNELS 3 Zrotation Xrotation Yrotation
              JOINT HandTipLeft
              {
                OFFSET 6.233911 -2.594066 1.173680
                CHANNELS 3 Zrotation Xrotation Yrotation
                End Site
                {
                  OFFSET 0 0 0
                }
              }
              JOINT ThumbLeft
              {
                OFFSET 4.731838 -1.061022 -2.285377
                CHANNELS 3 Zrotation Xrotation Yrotation
                End Site
                {
                  OFFSET 0 0 0
                }
              }
            }
          }
        }
      }
      JOINT ShoulderRight
      {
        OFFSET 6.339477 -3.130353 16.424195
        CHANNELS 3 Zrotation Xrotation Yrotation
        JOINT ElbowRight
        {
          OFFSET 1.836948 -25.992451 3.851291
          CHANNELS 3 Zrotation Xrotation Yrotation
          JOINT WristRight
          {
            OFFSET 7.193741 -21.725484 -11.720975
            CHANNELS 3 Zrotation Xrotation Yrotation
            JOINT HandRight
            {
              OFFSET -0.591472 -3.581704 -3.540177
              CHANNELS 3 Zrotation Xrotation Yrotation
              JOINT HandTipRight
              {
                OFFSET 0.840889 -5.557816 -1.870235
                CHANNELS 3 Zrotation Xrotation Yrotation
                End Site
                {
                  OFFSET 0 0 0
                }
              }
              JOINT ThumbRight
              {
                OFFSET -1.013047 0.041615 -3.874790
                CHANNELS 3 Zrotation Xrotation Yrotation
                End Site
                {
                  OFFSET 0 0 0
                }
              }
            }
          }
        }
      }
    }
  }
  JOINT HipLeft
  {
    OFFSET -1.141779 1.544978 -9.080223
    CHANNELS 3 Zrotation Xrotation Yrotation
    JOINT KneeLeft
    {
      OFFSET -4.578116 -32.455188 -10.062930
      CHANNELS 3 Zrotation Xrotation Yrotation
      JOINT AnkleLeft
      {
        OFFSET -11.507752 -38.748432 3.384520
        CHANNELS 3 Zrotation Xrotation Yrotation
        JOINT FootLeft
        {
          OFFSET 10.128531 -3.104939 -6.053313
          CHANNELS 3 Zrotation Xrotation Yrotation
          End Site
          {
            OFFSET 0 0 0
          }
        }
      }
    }
  }
  JOINT HipRight
  {
    OFFSET 3.946840 -0.051695 2.753633
    CHANNELS 3 Zrotation Xrotation Yrotation
    JOINT KneeRight
    {
      OFFSET -2.314349 -34.217790 2.931398
      CHANNELS 3 Zrotation Xrotation Yrotation
      JOINT AnkleRight
      {
        OFFSET -11.198692 -32.886359 3.071479
        CHANNELS 3 Zrotation Xrotation Yrotation
        JOINT FootRight
        {
          OFFSET 2.608539 -7.026208 -0.917842
          CHANNELS 3 Zrotation Xrotation Yrotation
          End Site
          {
            OFFSET 0 0 0
          }
        }
      }
    }
  }
}
MOTION
Frames: 15
Frame Time: 0.033333
-141.181881 73.241472 300.975273 1.506750 -3.678434 -77.931758 -0.401198 -0.507803 78.052223 -0.417597 0.267027 0.058464 1.865235 13.132171 -3.186529 0.000000 0.000000 0.000000 18.408641 -11.637198 -4.297068 -47.040285 6.651748 2.687726 -5.079226 4.193912 -25.748110 2.425905 1.755358 29.179298 0.000000 0.000000 0.000000 0.000000 0.000000 0.000000 3.281705 1.452319 0.197711 -5.725426 -5.930450 -2.030334 4.691177 -24.038048 6.492837 14.881009 59.816818 -12.852773 0.000000 0.000000 0.000000 0.000000 0.000000 0.000000 9.066914 -3.919276 80.600282 0.996151 13.322277 -2.234493 0.418042 -1.860886 -7.009024 0.000000 0.000000 0.000000 6.982241 0.899466 78.961991 -0.164569 6.170315 0.562577 6.678587 -6.057713 -6.458676 0.000000 0.000000 0.000000
-141.181031 73.227471 301.697256 0.553689 -3.154425 -78.279016 -0.489959 -0.615880 78.331548 -0.494760 0.264208 0.005727 1.869251 14.178500 -3.054608 0.000000 0.000000 0.000000 17.378753 -10.748943 -3.642355 -44.867005 7.128319 2.769421 -9.060439 6.166675 -28.129072 3.730243 0.254835 33.207682 0.000000 0.000000 0.000000 0.000000 0.000000 0.000000 4.219494 2.338486 0.333833 -7.409704 -9.110677 -1.966221 7.387923 -25.014906 5.268973 15.566673 57.250500 -14.702143 0.000000 0.000000 0.000000 0.000000 0.000000 0.000000 9.119877 -3.070108 80.681585 1.984751 13.267280 -2.499127 -0.638371 -2.767376 -7.442274 0.000000 0.000000 0.000000 7.318032 1.711403 79.121158 0.182530 6.499825 0.328190 6.217297 -5.591372 -5.795689 0.000000 0.000000 0.000000
-141.150252 73.155932 302.527171 -0.384995 -2.730795 -78.888435 -0.611920 -0.945643 78.881141 -0.533602 0.182611 -0.051349 1.556104 15.353505 -2.704880 0.000000 0.000000 0.000000 16.386527 -9.918901 -2.868358 -43.097593 7.813908 2.923185 -11.979564 8.259147 -29.732647 6.479955 -0.612538 37.527468 0.000000 0.000000 0.000000 0.000000 0.000000 0.000000 5.404802 3.335304 0.478308 -9.366053 -12.153050 -1.958920 9.324967 -24.543266 4.226379 12.781243 49.989390 -13.435437 0.000000 0.000000 0.000000 0.000000 0.000000 0.000000 8.524778 -2.416979 81.093089 2.786839 12.221436 -2.579342 -1.249239 -3.209459 -8.062386 0.000000 0.000000 0.000000 7.378681 2.459081 79.542451 0.838332 6.680121 0.106509 4.960293 -5.578259 -5.238882 0.000000 0.000000 0.000000
-141.484498 73.002810 303.324743 -1.849172 -2.355386 -79.629780 -0.847685 -1.043891 79.547371 -0.704602 0.224513 -0.130573 1.810373 15.998562 -2.289416 0.000000 0.000000 0.000000 15.732745 -9.411509 -1.904313 -42.398507 8.570312 3.132536 -14.111678 11.047921 -29.642319 9.200082 -2.634999 38.822251 0.000000 0.000000 0.000000 0.000000 0.000000 0.000000 7.954361 3.197413 0.743671 -12.638988 -13.082153 -1.339268 11.319964 -24.201156 2.191069 6.823035 47.904070 -8.449308 0.000000 0.000000 0.000000 0.000000 0.000000 0.000000 7.595743 -0.918632 81.406074 3.470457 10.388408 -2.348519 -2.226570 -3.329747 -8.738002 0.000000 0.000000 0.000000 7.622802 4.265748 80.015955 1.218204 6.793475 -0.085705 3.074100 -5.593774 -4.782972 0.000000 0.000000 0.000000
-142.081813 72.767565 303.997588 -3.614845 -1.991456 -80.293468 -1.081270 -0.970160 80.142554 -0.898830 0.263211 -0.216797 2.023086 16.522345 -1.755948 0.000000 0.000000 0.000000 15.388771 -9.093138 -0.942190 -42.405924 9.117581 2.939623 -15.349688 13.777939 -26.890387 11.385131 -5.300623 35.530765 0.000000 0.000000 0.000000 0.000000 0.000000 0.000000 9.646586 3.569986 0.954147 -14.814850 -14.836780 -0.955694 10.617800 -21.668430 3.398642 9.996992 52.118930 -10.109312 0.000000 0.000000 0.000000 0.000000 0.000000 0.000000 6.632136 1.018424 81.602794 4.158545 8.305153 -1.958900 -3.483046 -3.249385 -9.280275 0.000000 0.000000 0.000000 8.222727 6.843393 80.368177 1.102459 7.104371 -0.294169 -0.807566 -6.242836 -4.436989 0.000000 0.000000 0.000000
-142.854479 72.488325 304.527648 -5.551487 -1.538221 -80.878322 -1.241906 -1.024050 80.669253 -1.294764 0.323233 -0.325443 1.431867 17.483980 -0.772058 0.000000 0.000000 0.000000 15.634920 -8.779704 -0.005129 -43.137484 9.485310 2.546670 -14.311931 15.273162 -21.798740 11.721653 -7.896385 29.729001 0.000000 0.000000 0.000000 0.000000 0.000000 0.000000 11.080156 4.081069 1.142348 -16.185480 -16.673229 -0.584440 8.321585 -18.675387 6.742179 15.383409 49.468868 -14.332319 0.000000 0.000000 0.000000 0.000000 0.000000 0.000000 5.982449 3.204736 81.757249 4.846859 6.411105 -1.511841 -4.973492 -3.114365 -9.591857 0.000000 0.000000 0.000000 8.954900 9.711947 80.605315 0.875466 7.313464 -0.465496 -2.486817 -7.034122 -4.431360 0.000000 0.000000 0.000000
-143.771580 72.090172 304.929498 -7.453338 -1.063435 -81.246171 -1.273913 -0.678105 81.010834 -1.120028 0.331562 -0.384258 1.415872 18.311521 -0.387591 0.000000 0.000000 0.000000 15.535042 -8.717044 0.656797 -44.624017 9.883144 2.567421 -10.103682 14.677464 -17.730581 9.625322 -9.075599 23.953458 0.000000 0.000000 0.000000 0.000000 0.000000 0.000000 10.846867 4.582341 1.192541 -17.548752 -18.730349 -0.056416 9.833247 -15.325945 5.530690 8.546116 43.022728 -9.238035 0.000000 0.000000 0.000000 0.000000 0.000000 0.000000 5.678246 5.358551 81.773757 5.580569 5.011563 -1.122332 -6.493540 -3.080792 -9.821267 0.000000 0.000000 0.000000 9.506326 12.360842 80.644477 0.709646 7.167591 -0.535048 -2.391098 -8.129088 -4.758826 0.000000 0.000000 0.000000
-144.589965 71.888849 305.315449 -9.155470 -0.618449 -82.020907 -1.230324 -0.252197 81.782731 -0.611578 0.192385 -0.414663 2.131258 18.848833 -0.461328 0.000000 0.000000 0.000000 14.851479 -8.327047 1.150624 -44.815105 10.132867 2.554379 -9.480610 15.204076 -16.811948 12.054908 -9.467363 22.656928 0.000000 0.000000 0.000000 0.000000 0.000000 0.000000 9.660769 5.541595 1.165127 -17.468621 -21.107172 -0.137766 10.056831 -12.544011 6.048839 0.283115 34.746939 -4.526446 0.000000 0.000000 0.000000 0.000000 0.000000 0.000000 5.334700 7.162306 82.354669 6.606063 3.641754 -0.759141 -7.974477 -2.863539 -9.999662 0.000000 0.000000 0.000000 9.008801 14.791987 81.255341 0.834891 5.928991 -0.368449 -3.047589 -9.031506 -5.192407 0.000000 0.000000 0.000000
-144.960025 71.877458 305.446985 -9.622310 -0.220540 -82.627432 -0.913872 0.558291 82.421291 -0.554867 0.283850 -0.393894 3.095069 19.531970 -1.184608 0.000000 0.000000 0.000000 14.435210 -8.243677 1.030264 -45.731803 10.061931 3.226843 -9.100587 15.461630 -16.002180 13.663490 -9.813373 21.648298 0.000000 0.000000 0.000000 0.000000 0.000000 0.000000 7.016256 7.056055 1.095476 -14.063075 -23.921163 -1.331191 9.327997 -10.855983 6.949048 7.219123 33.695946 -9.779872 0.000000 0.000000 0.000000 0.000000 0.000000 0.000000 5.284523 7.807679 82.876326 6.789926 2.930850 -0.503669 -8.336738 -2.710827 -10.553045 0.000000 0.000000 0.000000 9.128405 15.747281 81.833634 0.412886 5.750664 -0.372836 -1.644695 -9.861198 -5.472558 0.000000 0.000000 0.000000
-144.981418 71.965722 305.370713 -8.896475 -0.009902 -83.057383 -0.587075 1.373005 82.894393 -0.475262 0.317134 -0.328130 5.167076 19.255727 -2.690474 0.000000 0.000000 0.000000 14.628962 -8.754953 0.278890 -48.165470 9.996383 5.032265 -8.644728 15.384975 -16.399945 12.420423 -10.289878 19.088858 0.000000 0.000000 0.000000 0.000000 0.000000 0.000000 3.299717 8.780471 0.976794 -7.591743 -26.595771 -3.003087 7.888327 -11.861410 8.169279 -4.222685 39.201830 0.316542 0.000000 0.000000 0.000000 0.000000 0.000000 0.000000 5.174731 7.474614 83.250323 6.020537 2.624635 -0.299244 -7.532626 -2.539807 -11.089892 0.000000 0.000000 0.000000 9.073181 15.243352 82.402296 -0.232370 5.184523 -0.145485 0.960551 -8.745913 -5.552441 0.000000 0.000000 0.000000
-144.368986 72.186288 305.970237 -7.271528 -0.321709 -83.952790 -0.015249 2.414102 83.802538 -0.166737 0.363481 -0.193611 6.763295 18.569776 -4.451768 0.000000 0.000000 0.000000 12.968517 -8.052260 -0.735132 -49.437540 9.410675 5.822178 -8.407905 15.133794 -16.764721 11.640384 -10.259938 18.750585 0.000000 0.000000 0.000000 0.000000 0.000000 0.000000 -1.388410 10.965700 0.830245 0.665150 -29.580967 -4.858775 4.495868 -9.547892 10.782205 8.215862 36.488482 -9.596352 0.000000 0.000000 0.000000 0.000000 0.000000 0.000000 2.898145 5.895820 84.329197 5.431775 0.926716 -0.010525 -3.778109 -1.898662 -13.901108 0.000000 0.000000 0.000000 7.393818 13.041159 83.651030 0.176427 3.563002 0.325791 3.578264 -7.015682 -5.764939 0.000000 0.000000 0.000000
-143.545772 72.285722 305.500042 -4.050501 -0.364320 -85.516201 0.344624 2.911038 85.453296 0.058550 0.444361 -0.039777 8.421284 17.192667 -6.530198 0.000000 0.000000 0.000000 12.112610 -8.657881 -2.161821 -49.696655 8.731426 7.099078 -10.152341 14.695215 -17.723220 11.697115 -9.526400 18.606105 0.000000 0.000000 0.000000 0.000000 0.000000 0.000000 -9.226650 10.508821 0.243127 14.060648 -31.525373 -6.333244 5.273303 -11.972563 9.433433 12.584194 44.211207 -13.007924 0.000000 0.000000 0.000000 0.000000 0.000000 0.000000 2.334404 2.745521 86.065900 4.086909 1.046463 -0.147120 -2.204531 -2.532194 -15.545502 0.000000 0.000000 0.000000 8.057256 9.486489 85.578707 -0.839220 4.833179 0.238742 6.497647 -8.851689 -6.379175 0.000000 0.000000 0.000000
-142.565924 72.247797 304.193828 0.217730 -0.133153 -88.822549 0.454134 2.797008 88.901772 0.299991 0.446475 0.121462 10.144055 14.494098 -8.366336 0.000000 0.000000 0.000000 11.981212 -10.187827 -3.784046 -48.977249 8.005182 8.531715 -11.997176 13.277971 -18.403967 9.691154 -8.151102 19.616322 0.000000 0.000000 0.000000 0.000000 0.000000 0.000000 -13.268634 11.328365 0.087934 22.458893 -32.353109 -7.515984 9.210956 -15.959043 2.385482 -2.943909 49.945081 0.364133 0.000000 0.000000 0.000000 0.000000 0.000000 0.000000 3.236965 -1.410926 89.706069 2.387553 2.351056 -0.522886 -2.627226 -4.056677 -16.256349 0.000000 0.000000 0.000000 11.130561 5.947320 89.557309 -2.989004 8.312960 0.046186 7.532219 -11.448116 -7.008741 0.000000 0.000000 0.000000
-141.800820 71.993392 302.524245 4.195404 0.168273 -96.398977 0.250258 2.913599 96.620299 0.500744 0.251710 0.292866 12.211919 11.264303 -9.868564 0.000000 0.000000 0.000000 12.785896 -12.244819 -5.452168 -48.775412 7.324533 10.185224 -14.672495 12.470958 -16.593035 5.906555 -7.877632 16.040167 0.000000 0.000000 0.000000 0.000000 0.000000 0.000000 -13.339790 13.285638 0.244485 24.381904 -32.318172 -8.284557 17.065173 -19.133669 -13.040162 -31.629795 41.032482 27.614180 0.000000 0.000000 0.000000 0.000000 0.000000 0.000000 5.295648 -3.882586 97.490408 -0.744489 4.200551 -0.635713 -5.336058 -6.621873 -15.726826 0.000000 0.000000 0.000000 15.932210 5.731894 97.999163 -6.427992 13.640503 0.075124 7.419727 -11.923646 -6.927929 0.000000 0.000000 0.000000
-141.308555 71.511112 300.654600 8.404944 0.177620 -122.417993 -0.804275 2.443359 122.793370 0.374914 0.163247 0.439701 13.733970 8.581210 -10.925603 0.000000 0.000000 0.000000 14.304079 -14.502259 -6.956261 -49.916385 6.756612 12.177383 -11.403955 8.380707 -17.029738 -2.835187 -5.595058 14.945369 0.000000 0.000000 0.000000 0.000000 0.000000 0.000000 -10.545176 16.991715 0.432841 22.677007 -33.904358 -8.848800 19.594029 -15.798955 -23.338395 -31.068369 22.554092 33.402026 0.000000 0.000000 0.000000 0.000000 0.000000 0.000000 10.103940 -3.576631 124.132780 -2.130191 6.678873 -0.964155 -11.765778 -10.376499 -15.108917 0.000000 0.000000 0.000000 17.578718 13.947992 124.315129 -11.788445 20.476984 0.690502 7.079202 -13.308633 -6.393800 0.000000 0.000000 0.000000
